<mxfile host="app.diagrams.net" modified="2022-11-24T09:16:27.665Z" agent="5.0 (Windows NT 10.0; Win64; x64) AppleWebKit/537.36 (KHTML, like Gecko) Chrome/107.0.0.0 Safari/537.36" etag="weo_szCGCXBsTB6N5eJG" version="20.6.0" type="github">
  <diagram id="iutSKIyht6ZDnaRwBpJ0" name="Seite-1">
    <mxGraphModel dx="1356" dy="1018" grid="1" gridSize="10" guides="1" tooltips="1" connect="1" arrows="1" fold="1" page="1" pageScale="1" pageWidth="827" pageHeight="1169" math="0" shadow="0">
      <root>
        <mxCell id="0" />
        <mxCell id="1" parent="0" />
        <mxCell id="KtM2md-6dIt3MXh-L0Ix-18" value="" style="endArrow=open;endFill=1;endSize=12;html=1;rounded=0;entryX=0.008;entryY=0.386;entryDx=0;entryDy=0;entryPerimeter=0;" parent="1" source="KtM2md-6dIt3MXh-L0Ix-10" target="KtM2md-6dIt3MXh-L0Ix-12" edge="1">
          <mxGeometry width="160" relative="1" as="geometry">
            <mxPoint x="230" y="280" as="sourcePoint" />
            <mxPoint x="390" y="280" as="targetPoint" />
          </mxGeometry>
        </mxCell>
        <mxCell id="KtM2md-6dIt3MXh-L0Ix-8" value="Buha2000" style="swimlane;whiteSpace=wrap;html=1;" parent="1" vertex="1">
          <mxGeometry x="200" y="110" width="360" height="520" as="geometry" />
        </mxCell>
        <mxCell id="KtM2md-6dIt3MXh-L0Ix-9" value="Rechnung Erstellen" style="ellipse;whiteSpace=wrap;html=1;" parent="KtM2md-6dIt3MXh-L0Ix-8" vertex="1">
          <mxGeometry x="95" y="107.5" width="170" height="105" as="geometry" />
        </mxCell>
        <mxCell id="7ixdcoolu9i7MKQhK21K-14" value="&lt;font style=&quot;font-size: 14px;&quot;&gt;Mahnung erstellen&lt;/font&gt;" style="ellipse;whiteSpace=wrap;html=1;fontSize=19;" vertex="1" parent="KtM2md-6dIt3MXh-L0Ix-8">
          <mxGeometry x="95" y="298" width="170" height="105" as="geometry" />
        </mxCell>
        <mxCell id="7ixdcoolu9i7MKQhK21K-22" value="" style="endArrow=open;endFill=1;endSize=12;html=1;rounded=0;fontSize=14;entryX=0;entryY=0.5;entryDx=0;entryDy=0;" edge="1" parent="KtM2md-6dIt3MXh-L0Ix-8" target="7ixdcoolu9i7MKQhK21K-14">
          <mxGeometry width="160" relative="1" as="geometry">
            <mxPoint x="-80" y="190" as="sourcePoint" />
            <mxPoint x="80" y="190" as="targetPoint" />
            <Array as="points">
              <mxPoint x="-80" y="351" />
            </Array>
          </mxGeometry>
        </mxCell>
        <mxCell id="KtM2md-6dIt3MXh-L0Ix-10" value="Actor" style="shape=umlActor;verticalLabelPosition=bottom;verticalAlign=top;html=1;" parent="1" vertex="1">
          <mxGeometry x="70" y="220" width="50" height="90" as="geometry" />
        </mxCell>
        <mxCell id="KtM2md-6dIt3MXh-L0Ix-12" value="&amp;lt;&amp;lt;actor&amp;gt;&amp;gt;&lt;br&gt;&lt;br&gt;&lt;b&gt;Laserdrucker&lt;br&gt;&lt;/b&gt;" style="html=1;align=center;verticalAlign=middle;dashed=0;" parent="1" vertex="1">
          <mxGeometry x="620" y="240" width="160" height="70" as="geometry" />
        </mxCell>
        <mxCell id="7ixdcoolu9i7MKQhK21K-23" value="" style="endArrow=open;endFill=1;endSize=12;html=1;rounded=0;fontSize=14;exitX=1;exitY=0.5;exitDx=0;exitDy=0;entryX=-0.004;entryY=0.722;entryDx=0;entryDy=0;entryPerimeter=0;" edge="1" parent="1" source="7ixdcoolu9i7MKQhK21K-14" target="KtM2md-6dIt3MXh-L0Ix-12">
          <mxGeometry width="160" relative="1" as="geometry">
            <mxPoint x="500" y="460" as="sourcePoint" />
            <mxPoint x="660" y="460" as="targetPoint" />
            <Array as="points">
              <mxPoint x="490" y="461" />
              <mxPoint x="490" y="290" />
            </Array>
          </mxGeometry>
        </mxCell>
        <mxCell id="7ixdcoolu9i7MKQhK21K-26" value="&lt;ul&gt;&lt;li&gt;Rechnungen prÃ¼fen&lt;/li&gt;&lt;li&gt;Sammeln Kundendaten&lt;/li&gt;&lt;li&gt;Anlegen Serienbrief&lt;/li&gt;&lt;li&gt;Drucken des Mahnschreibens&lt;/li&gt;&lt;/ul&gt;" style="shape=note2;boundedLbl=1;whiteSpace=wrap;html=1;size=25;verticalAlign=top;align=left;fontSize=14;" vertex="1" parent="1">
          <mxGeometry x="580" y="500" width="190" height="140" as="geometry" />
        </mxCell>
        <mxCell id="7ixdcoolu9i7MKQhK21K-27" value="" style="endArrow=none;dashed=1;html=1;rounded=0;fontSize=12;exitX=0.5;exitY=1;exitDx=0;exitDy=0;entryX=0;entryY=0.5;entryDx=0;entryDy=0;entryPerimeter=0;" edge="1" parent="1" source="7ixdcoolu9i7MKQhK21K-14" target="7ixdcoolu9i7MKQhK21K-26">
          <mxGeometry width="50" height="50" relative="1" as="geometry">
            <mxPoint x="570" y="580" as="sourcePoint" />
            <mxPoint x="620" y="530" as="targetPoint" />
            <Array as="points">
              <mxPoint x="380" y="570" />
            </Array>
          </mxGeometry>
        </mxCell>
      </root>
    </mxGraphModel>
  </diagram>
</mxfile>
